<svg xmlns="http://www.w3.org/2000/svg" enable-background="new 0 0 47.5 47.5" viewBox="0 0 47.5 47.5"><defs><clipPath id="a" clipPathUnits="userSpaceOnUse"><path d="M 0,38 38,38 38,0 0,0 0,38 Z"/></clipPath></defs><g clip-path="url(#a)" transform="matrix(1.25 0 0 -1.25 0 47.5)"><path fill="#ffcc4d" d="m 0,0 c 0,-9.389 -7.611,-17 -17,-17 -9.388,0 -17,7.611 -17,17 0,9.388 7.612,17 17,17 C -7.611,17 0,9.388 0,0" transform="translate(36 19)"/><path fill="#664500" d="m 0,0 -18,0 c -2.209,0 -4,-1.791 -4,-4 0,-2.209 1.791,-4 4,-4 l 18,0 c 2.21,0 4,1.791 4,4 0,2.209 -1.79,4 -4,4" transform="translate(28 17)"/><path fill="#f5f8fa" d="m 25,15 -5,0 0,-4 5,0 0,4 z"/><path fill="#f5f8fa" d="m 0,0 -1,0 0,-4 1,0 c 1.105,0 2,0.896 2,2 0,1.105 -0.895,2 -2,2" transform="translate(28 15)"/><path fill="#f5f8fa" d="m 0,0 c -1.104,0 -2,-0.895 -2,-2 0,-1.104 0.896,-2 2,-2 l 1,0 0,4 -1,0 z" transform="translate(10 15)"/><path fill="#f5f8fa" d="m 13,11 5,0 0,4 -5,0 0,-4 z"/><path fill="#664500" d="m 0,0 c 0,-1.657 -0.96,-3 -2.143,-3 -1.184,0 -2.143,1.343 -2.143,3 0,1.657 0.959,3 2.143,3 C -0.96,3 0,1.657 0,0" transform="translate(15 23)"/><path fill="#664500" d="m 0,0 c 0,-1.547 -0.895,-2.8 -2,-2.8 -1.104,0 -2,1.253 -2,2.8 0,1.546 0.896,2.8 2,2.8 1.105,0 2,-1.254 2,-2.8" transform="translate(27 23.2)"/></g></svg>